#N canvas 26 29 1280 932 12;
#X obj 342 234 bng 18 250 50 0 empty empty empty 17 7 0 10 #dcdcdc #000000 #000000;
#X obj 282 479 else/envgen~;
#X obj 106 224 else/function 200 100 empty empty 0 1 220 220 220 50 50 50 0 0 0 0 0 50 1 50 0.6 300 0.6 600 0;
#X obj 272 10 else/initmess 50 50 300 600;
#X msg 619 347 0 \$1 1 \$2 0.6 \$3 0.6 \$4 0;
#X obj 105 139 knob 50 1 500 1 1 empty empty #dfdfdf #7c7c7c black 0 0 0 0 1 320 0 0;
#X obj 157 139 knob 50 1 500 1 1 empty empty #dfdfdf #7c7c7c black 0 0 0 0 1 320 0 0;
#X obj 209 139 knob 50 50 1000 1 50 empty empty #dfdfdf #7c7c7c black 0 0 0 0 1 320 0 0;
#X obj 261 139 knob 50 50 1000 1 50 empty empty #dfdfdf #7c7c7c black 0 0 0 0 1 320 0 0;
#X obj 521 189 pack2 f f f f;
#X listbox 106 196 35 0 0 0 - - - 12;
#X obj 282 503 outlet~;
#X text 123 123 A D S R;
#X obj 454 141 inlet;
#X obj 272 34 unpack f f f f;
#X connect 0 0 1 0;
#X connect 1 0 11 0;
#X connect 2 0 1 1;
#X connect 3 0 14 0;
#X connect 4 0 2 0;
#X connect 5 0 9 0;
#X connect 6 0 9 1;
#X connect 7 0 9 2;
#X connect 8 0 9 3;
#X connect 9 0 4 0;
#X connect 9 0 10 0;
#X connect 13 0 0 0;
#X connect 14 0 5 0;
#X connect 14 1 6 0;
#X connect 14 2 7 0;
#X connect 14 3 8 0;
#X coords 0 -1 1 1 300 235 1 100 100;
