#N canvas 0 23 1024 723 12;
#N canvas 0 23 1024 723 interface 0;
#N canvas 0 50 450 250 (subpatch) 0;
#X array LEFT 1024 float 0;
#X coords 0 1.2 1023 -1.2 200 140 1 0 0;
#X restore 78 113 graph;
#N canvas 0 50 450 250 (subpatch) 0;
#X array RIGHT 1024 float 0;
#X coords 0 1.2 1023 -1.2 200 140 1 0 0;
#X restore 78 295 graph;
#N canvas 130 145 450 300 projection 0;
#X obj 211 128 tgl 19 0 empty empty empty 0 -10 0 12 #fcfcfc #000000 #000000 0 1;
#X obj 58 156 tabwrite~ LEFT;
#X obj 68 176 tabwrite~ RIGHT;
#X obj 232 101 inlet;
#X obj 48 58 inlet~;
#X obj 183 20 inlet~;
#X floatatom 300 107 5 0 0 0 - - - 0;
#X obj 211 152 metro 60;
#X obj 48 82 throw~ spectrum_left;
#X obj 183 44 throw~ spectrum_right;
#X connect 0 0 7 0;
#X connect 3 0 0 0;
#X connect 4 0 1 0;
#X connect 4 0 8 0;
#X connect 5 0 2 0;
#X connect 5 0 9 0;
#X connect 6 0 7 1;
#X connect 7 0 1 0;
#X connect 7 0 2 0;
#X restore 754 946 pd projection;
#X obj 893 876 tgl 19 0 empty empty empty 0 -10 0 12 #fcfcfc #000000 #000000 0 1;
#X obj 749 789 delread4~ delay_buffer;
#X obj 825 827 delread4~ delay_buffer;
#X obj 761 849 *~;
#X obj 826 849 *~;
#N canvas 26 29 700 548 ILD 0;
#X obj 105 148 else/knob 50 -1 1 0 0 empty empty #dfdfdf #7c7c7c black 0 0 0 0 1 120 0 0;
#X msg 185 113 range -1 1;
#X msg 184 132 0;
#X obj 105 203 moses 0;
#X obj 89 303 pack f 10;
#X obj 89 347 line~;
#X obj 199 305 pack f 10;
#X obj 199 329 line~;
#X obj 165 170 bng 19 250 50 0 empty empty empty 0 -10 0 12 #fcfcfc #000000 #000000;
#X obj 83 475 outlet~;
#X obj 193 457 outlet~;
#X obj 372 169 loadbang;
#X obj 37 37 inlet;
#X obj 89 371 *~ 20;
#X obj 89 419 abs~;
#X obj 89 443 dbtorms~;
#X obj 198 405 abs~;
#X obj 198 429 dbtorms~;
#X obj 198 357 *~ 20;
#X obj 89 395 +~ 100;
#X obj 197 383 +~ 100;
#X obj 96 240 * -1;
#X obj 92 272 t f b;
#X msg 141 277 0;
#X obj 152 254 t f b;
#X msg 195 275 0;
#X connect 0 0 3 0;
#X connect 1 0 0 0;
#X connect 2 0 0 0;
#X connect 3 0 24 0;
#X connect 3 1 21 0;
#X connect 4 0 5 0;
#X connect 5 0 13 0;
#X connect 6 0 7 0;
#X connect 7 0 18 0;
#X connect 8 0 2 0;
#X connect 11 0 8 0;
#X connect 12 0 0 0;
#X connect 13 0 19 0;
#X connect 14 0 15 0;
#X connect 15 0 9 0;
#X connect 16 0 17 0;
#X connect 17 0 10 0;
#X connect 18 0 20 0;
#X connect 19 0 14 0;
#X connect 20 0 16 0;
#X connect 21 0 22 0;
#X connect 22 0 4 0;
#X connect 22 1 23 0;
#X connect 23 0 6 0;
#X connect 24 0 6 0;
#X connect 24 1 25 0;
#X connect 25 0 4 0;
#X coords 0 -1 1 1 100 100 1 100 100;
#X restore 646 501 pd ILD;
#N canvas 580 230 700 548 ITD 0;
#X obj 105 168 else/knob 50 -1 1 0 0 empty empty #dfdfdf #7c7c7c black 0 0 0 0 1 120 0 0;
#X msg 355 142 range -1 1;
#X msg 354 161 0;
#X obj 105 223 moses 0;
#X obj 88 384 pack f 10;
#X obj 88 408 line~;
#X obj 201 396 pack f 10;
#X obj 201 420 line~;
#X obj 104 127 bng 19 250 50 0 empty empty empty 0 -10 0 12 #fcfcfc #000000 #000000;
#X obj 88 482 outlet~;
#X obj 201 494 outlet~;
#X obj 485 167 loadbang;
#X obj 88 445 +~ 1;
#X obj 201 457 +~ 1;
#X obj 165 104 vsl 19 80 0 1 0 0 empty empty empty 0 -9 0 12 #fcfcfc #000000 #000000 0 1;
#X obj 212 104 vsl 19 80 0 1 0 0 empty empty empty 0 -9 0 12 #fcfcfc #000000 #000000 0 1;
#X obj 65 271 abs;
#X floatatom 65 295 5 0 0 0 - - - 0;
#X floatatom 155 291 5 0 0 0 - - - 0;
#X obj 161 249 t f b;
#X msg 203 277 0;
#X obj 93 259 t f b;
#X msg 123 284 0;
#X obj 37 37 inlet;
#X obj 405 279 loadbang;
#X msg 329 335 \; LEFT width 3 \; RIGHT width 3 \; LEFT color 9 \; RIGHT color 900 \; LEFT xlabel -1.4 0 256 512 768 1024 \; LEFT xticks 0 1 200 \; LEFT ylabel -1 -1 0 1 \; LEFT yticks 0 0.5 5 \; RIGHT xlabel -1.4 0 256 512 768 1024 \; RIGHT xticks 0 1 200 \; RIGHT ylabel -1 -1 0 1 \; RIGHT yticks 0 0.5 5;
#X floatatom 165 188 5 0 0 3 ms - - 0;
#X floatatom 212 188 5 0 0 3 ms - - 0;
#X floatatom 131 138 5 0 0 0 - - - 0;
#X connect 0 0 3 0;
#X connect 1 0 0 0;
#X connect 2 0 0 0;
#X connect 3 0 21 0;
#X connect 3 1 19 0;
#X connect 4 0 5 0;
#X connect 5 0 12 0;
#X connect 6 0 7 0;
#X connect 7 0 13 0;
#X connect 8 0 2 0;
#X connect 11 0 8 0;
#X connect 12 0 9 0;
#X connect 13 0 10 0;
#X connect 14 0 26 0;
#X connect 15 0 27 0;
#X connect 16 0 17 0;
#X connect 17 0 4 0;
#X connect 17 0 15 0;
#X connect 18 0 6 0;
#X connect 18 0 14 0;
#X connect 19 0 18 0;
#X connect 19 1 20 0;
#X connect 20 0 17 0;
#X connect 21 0 16 0;
#X connect 21 1 22 0;
#X connect 22 0 18 0;
#X connect 23 0 0 0;
#X connect 24 0 25 0;
#X connect 28 0 13 1;
#X connect 28 0 12 1;
#X coords 0 -1 1 1 150 123 1 100 100;
#X restore 598 605 pd ITD;
#X obj 673 449 else/knob 50 -1 1 0 0 empty empty #dfdfdf #7c7c7c black 0 0 0 0 1 120 0 0;
#X msg 790 495 0;
#X obj 892 345 *~;
#N canvas 156 174 1027 482 timbre 0;
#X obj 72 381 outlet~;
#X obj 42 12 r timbre-select;
#N canvas 26 29 450 300 s 0;
#X obj 37 37 inlet;
#X obj 37 61 pack f 10;
#X obj 37 85 line~;
#X obj 37 109 outlet~;
#X connect 0 0 1 0;
#X connect 1 0 2 0;
#X connect 2 0 3 0;
#X restore 42 238 pd s;
#X obj 341 168 r freq-set;
#X obj 341 216 osc~;
#X obj 341 240 *~;
#X obj 381 240 *~;
#X obj 381 216 phasor~;
#X obj 341 192 t f f;
#X obj 441 240 *~;
#X obj 491 240 *~;
#X obj 441 216 noise~;
#X obj 491 216 pink~;
#X obj 536 240 *~;
#X obj 536 216 brown~;
#N canvas 26 29 450 300 s 0;
#X obj 37 37 inlet;
#X obj 37 61 pack f 10;
#X obj 37 85 line~;
#X obj 37 109 outlet~;
#X connect 0 0 1 0;
#X connect 1 0 2 0;
#X connect 2 0 3 0;
#X restore 82 238 pd s;
#N canvas 26 29 450 300 s 0;
#X obj 37 37 inlet;
#X obj 37 61 pack f 10;
#X obj 37 85 line~;
#X obj 37 109 outlet~;
#X connect 0 0 1 0;
#X connect 1 0 2 0;
#X connect 2 0 3 0;
#X restore 122 238 pd s;
#N canvas 26 29 450 300 s 0;
#X obj 37 37 inlet;
#X obj 37 61 pack f 10;
#X obj 37 85 line~;
#X obj 37 109 outlet~;
#X connect 0 0 1 0;
#X connect 1 0 2 0;
#X connect 2 0 3 0;
#X restore 162 238 pd s;
#N canvas 26 29 450 300 s 0;
#X obj 37 37 inlet;
#X obj 37 61 pack f 10;
#X obj 37 85 line~;
#X obj 37 109 outlet~;
#X connect 0 0 1 0;
#X connect 1 0 2 0;
#X connect 2 0 3 0;
#X restore 202 238 pd s;
#X obj 42 214 unpack f f f f f;
#X msg 42 190 1 0 0 0 0;
#X msg 62 170 0 1 0 0 0;
#X msg 82 150 0 0 1 0 0;
#X msg 102 130 0 0 0 1 0;
#X msg 122 110 0 0 0 0 1;
#X obj 42 36 sel 1 2 3 4 5, f 15;
#X obj 441 264 outlet~;
#X connect 1 0 25 0;
#X connect 2 0 5 1;
#X connect 3 0 8 0;
#X connect 4 0 5 0;
#X connect 5 0 0 0;
#X connect 6 0 0 0;
#X connect 7 0 6 0;
#X connect 8 0 4 0;
#X connect 8 1 7 0;
#X connect 9 0 26 0;
#X connect 10 0 26 0;
#X connect 11 0 9 0;
#X connect 12 0 10 0;
#X connect 13 0 26 0;
#X connect 14 0 13 0;
#X connect 15 0 6 1;
#X connect 16 0 9 1;
#X connect 17 0 10 1;
#X connect 18 0 13 1;
#X connect 19 0 2 0;
#X connect 19 1 15 0;
#X connect 19 2 16 0;
#X connect 19 3 17 0;
#X connect 19 4 18 0;
#X connect 20 0 19 0;
#X connect 21 0 19 0;
#X connect 22 0 19 0;
#X connect 23 0 19 0;
#X connect 24 0 19 0;
#X connect 25 0 20 0;
#X connect 25 1 21 0;
#X connect 25 2 22 0;
#X connect 25 3 23 0;
#X connect 25 4 24 0;
#X restore 856 162 pd timbre;
#X obj 65 539 ENVELOPE;
#X obj 818 462 loadbang;
#X obj 289 295 spectrograph~ 4096 1 1 300 140 100;
#X obj 289 113 spectrograph~ 4096 1 1 300 140 100;
#X obj 753 92 catch~ spectrum_left;
#X obj 750 277 catch~ spectrum_right;
#X obj 653 733 out~;
#X obj 472 509 knob 50 1 5 0 1 empty empty #dfdfdf #7c7c7c black 0 0 5 1 1 320 0 0;
#X floatatom 472 564 5 0 0 1 timbre-select - timbre-select 0;
#N canvas 0 28 1284 786 filter~ 0;
#X obj 71 268 inlet~;
#X obj 71 292 vcf~, f 24;
#X obj 71 316 *~;
#X obj 96 346 *~;
#X obj 414 212 hsl 162 19 1.27 127 1 0 empty empty bp~\ volume 10 10 0 12 #fcfcfc #000000 #000000 0 1;
#N canvas 990 509 450 300 calc-vol 0;
#X obj 37 37 inlet;
#X msg 37 109 0;
#X obj 110 136 pack f 10;
#X obj 110 160 line~;
#X obj 110 114 / 127;
#X floatatom 37 65 5 0 0 0 - - - 0;
#X obj 37 85 moses 1.305;
#X obj 110 184 pow~ 2;
#X obj 110 208 outlet~;
#X connect 0 0 5 0;
#X connect 1 0 2 0;
#X connect 2 0 3 0;
#X connect 3 0 7 0;
#X connect 4 0 2 0;
#X connect 5 0 6 0;
#X connect 6 0 1 0;
#X connect 6 1 4 0;
#X connect 7 0 8 0;
#X restore 291 231 pd calc-vol;
#X obj 414 237 hsl 162 19 1.27 127 1 0 empty empty lop~\ volume 10 10 0 12 #fcfcfc #000000 #000000 0 1;
#N canvas 990 509 450 300 calc-vol 0;
#X obj 37 37 inlet;
#X msg 37 109 0;
#X obj 110 136 pack f 10;
#X obj 110 160 line~;
#X obj 110 114 / 127;
#X floatatom 37 65 5 0 0 0 - - - 0;
#X obj 37 85 moses 1.305;
#X obj 110 184 pow~ 2;
#X obj 110 208 outlet~;
#X connect 0 0 5 0;
#X connect 1 0 2 0;
#X connect 2 0 3 0;
#X connect 3 0 7 0;
#X connect 4 0 2 0;
#X connect 5 0 6 0;
#X connect 6 0 1 0;
#X connect 6 1 4 0;
#X connect 7 0 8 0;
#X restore 411 261 pd calc-vol;
#X obj 413 107 hsl 162 19 0 127 0 0 empty empty empty -2 -10 0 12 #fcfcfc #000000 #000000 0 1;
#X obj 164 151 pack f 100;
#X obj 164 175 line~;
#X obj 164 199 mtof~;
#X obj 414 159 hsl 162 19 1 10 0 0 empty empty empty -2 -10 0 12 #fcfcfc #000000 #000000 0 1;
#X floatatom 411 183 5 0 0 1 Q - - 0;
#X floatatom 410 134 5 0 0 1 midi-note - - 0;
#X obj 226 41 loadbang;
#X obj 226 89 unpack f f f;
#X msg 226 65 69 2 1.27;
#X obj 71 370 outlet~;
#X obj 154 40 inlet;
#X obj 772 212 s freq-set;
#X obj 766 160 mtof;
#X floatatom 525 132 8 0 0 1 freq - - 0;
#X obj 420 36 i;
#X connect 0 0 1 0;
#X connect 1 0 2 0;
#X connect 1 1 3 0;
#X connect 2 0 18 0;
#X connect 3 0 18 0;
#X connect 4 0 5 0;
#X connect 5 0 2 1;
#X connect 6 0 7 0;
#X connect 7 0 3 1;
#X connect 8 0 23 0;
#X connect 9 0 10 0;
#X connect 10 0 11 0;
#X connect 11 0 1 1;
#X connect 12 0 13 0;
#X connect 13 0 1 2;
#X connect 14 0 9 0;
#X connect 14 0 21 0;
#X connect 15 0 17 0;
#X connect 16 0 8 0;
#X connect 16 1 12 0;
#X connect 16 2 4 0;
#X connect 16 2 6 0;
#X connect 17 0 16 0;
#X connect 19 0 16 0;
#X connect 21 0 22 0;
#X connect 22 0 20 0;
#X connect 23 0 14 0;
#X coords 0 -1 1 1 220 160 2 400 100;
#X restore 370 617 pd filter~;
#X msg 782 644 range 1 5 \, discrete 1 \, ticks 5;
#X obj 783 587 loadbang;
#X msg 783 611 1;
#X obj 913 852 loadbang;
#X obj 88 508 tgl 19 0 empty empty metronome 0 -10 0 12 #fcfcfc #000000 #000000 0 1;
#X obj 182 486 hsl 162 19 40 190 0 1 empty empty empty -2 -10 0 12 #fcfcfc #000000 #000000 2147 1;
#X floatatom 179 510 5 0 0 1 bpm - - 0;
#X msg 98 802 tempo \$1 permin;
#X obj 89 837 metro 1 120 permin;
#X obj 307 886 i;
#X obj 5 436 loadbang;
#X obj 368 539 hradio 30 1 0 2 env-sel-out env-sel-in envelope 0 -10 0 12 #fcfcfc #000000 #000000 0;
#N canvas 208 232 1280 932 envelope-selector-control 0;
#X obj 44 51 r env-sel-out;
#X obj 44 75 sel 0 1, f 37;
#X obj 44 123 s env-sel-in;
#X msg 44 99 label constant;
#X msg 176 100 label envelope;
#X obj 350 51 loadbang;
#X msg 350 75 1;
#X connect 0 0 1 0;
#X connect 1 0 3 0;
#X connect 1 1 4 0;
#X connect 3 0 2 0;
#X connect 4 0 2 0;
#X connect 5 0 6 0;
#X connect 6 0 1 0;
#X connect 6 0 2 0;
#X restore 929 484 pd envelope-selector-control;
#N canvas 200 100 1280 932 envelope_selected 0;
#X obj 50 70 inlet~;
#X obj 48 263 outlet~;
#X obj 186 69 r env-sel-out;
#X obj 186 93 == 1;
#X obj 186 117 pack f 10;
#X obj 186 141 line~;
#X obj 49 167 *~;
#X obj 186 165 -~ 1;
#X obj 186 189 abs~;
#X obj 105 183 sig~ 1;
#X obj 105 207 *~;
#X connect 0 0 6 0;
#X connect 2 0 3 0;
#X connect 3 0 4 0;
#X connect 4 0 5 0;
#X connect 5 0 6 1;
#X connect 5 0 7 0;
#X connect 6 0 1 0;
#X connect 7 0 8 0;
#X connect 8 0 10 1;
#X connect 9 0 10 0;
#X connect 10 0 1 0;
#X restore 947 322 pd envelope_selected;
#X msg 5 460 60;
#X obj 707 419 bng 19 250 50 0 empty empty empty 0 -10 0 12 #fcfcfc #000000 #000000;
#X obj 647 229 knob 50 0 110 0 0 empty empty #dfdfdf #7c7c7c black 0 0 0 0 1 320 0 0;
#X text 668 205 gain;
#X floatatom 648 286 5 0 0 1 dB - - 0;
#X msg 763 206 100;
#X obj 1006 349 dbtorms;
#X obj 1006 373 pack f 10;
#X obj 1006 397 line~;
#X obj 894 382 *~;
#X obj 898 421 tanh~;
#X obj 718 239 bng 19 250 50 0 empty empty empty 0 -10 0 12 #fcfcfc #000000 #000000;
#X msg 771 181 range 0 110;
#X obj 903 460 delwrite~ delay_buffer 100;
#X connect 3 0 2 2;
#X connect 4 0 6 0;
#X connect 5 0 7 0;
#X connect 6 0 2 0;
#X connect 6 0 20 0;
#X connect 7 0 2 1;
#X connect 7 0 20 1;
#X connect 8 0 6 1;
#X connect 8 1 7 1;
#X connect 9 0 5 0;
#X connect 9 1 4 0;
#X connect 10 0 8 0;
#X connect 10 0 9 0;
#X connect 11 0 10 0;
#X connect 12 0 47 0;
#X connect 13 0 12 0;
#X connect 13 1 23 0;
#X connect 14 0 37 0;
#X connect 15 0 11 0;
#X connect 15 0 43 0;
#X connect 18 0 17 0;
#X connect 19 0 16 0;
#X connect 21 0 22 0;
#X connect 23 0 12 0;
#X connect 24 0 21 0;
#X connect 25 0 26 0;
#X connect 26 0 21 0;
#X connect 27 0 3 0;
#X connect 28 0 32 0;
#X connect 29 0 33 0;
#X connect 30 0 31 0;
#X connect 31 0 32 0;
#X connect 32 0 14 0;
#X connect 33 0 30 0;
#X connect 34 0 38 0;
#X connect 37 0 12 1;
#X connect 38 0 29 0;
#X connect 39 0 11 0;
#X connect 40 0 42 0;
#X connect 42 0 44 0;
#X connect 43 0 40 0;
#X connect 44 0 45 0;
#X connect 45 0 46 0;
#X connect 46 0 47 1;
#X connect 47 0 48 0;
#X connect 48 0 51 0;
#X connect 49 0 43 0;
#X connect 50 0 40 0;
#X coords 0 -1 1 1 700 700 2 50 90;
#X restore 4 4 pd interface;
